<svg width="200" height="60" viewBox="0 0 200 60" fill="none" xmlns="http://www.w3.org/2000/svg">
<g clip-path="url(#clip0_1_11755)">
<path d="M11.8121 0.5H187.807C193.871 0.5 198.795 5.43464 198.795 11.5172V48.4643C198.795 54.5469 193.871 59.4815 187.807 59.4815H11.8121C5.74815 59.4815 0.824219 54.5469 0.824219 48.4643V11.5172C0.824219 5.43464 5.74814 0.5 11.8121 0.5Z" fill="#191919" stroke="#F0F0F0"/>
<path d="M46.2032 32.2484C45.2474 27.3651 49.4749 24.7669 49.7874 24.5826C49.1441 23.7165 48.3904 23.0531 47.6185 22.5924C45.0819 21.0076 42.0124 20.8602 40.1743 21.671C40.1559 21.671 40.1375 21.6895 40.1192 21.6895C38.3362 22.4634 36.296 22.4634 34.5131 21.6895C34.4947 21.6895 34.4763 21.671 34.4579 21.671C32.6199 20.8602 29.5503 21.0076 27.0138 22.5924C24.4772 24.1772 22.0326 27.7337 23.2825 34.5703C24.5324 41.4069 29.0724 45.5531 29.0724 45.5531C29.0724 45.5531 31.2413 47.4327 34.0903 46.1796C35.8732 45.4057 36.682 45.2583 37.0496 45.2767C37.2334 45.2767 37.3988 45.2767 37.5826 45.2767C37.9502 45.2767 38.759 45.4057 40.5419 46.1796C43.4093 47.4327 45.5598 45.5531 45.5598 45.5531C45.5598 45.5531 48.7397 42.6416 50.5226 37.6846C48.997 36.9843 46.8281 35.4548 46.2032 32.2484Z" fill="#FBFBFB"/>
<path d="M36.5167 21.4128C36.5167 21.4128 35.708 14.5946 43.3727 13.3784L43.336 14.2998C43.2073 18.059 40.2664 21.1364 36.5167 21.4128Z" fill="#FBFBFB"/>
<path d="M67.0827 15.479C67.0827 16.3267 66.9724 17.0638 66.7703 17.7087C66.5681 18.3537 66.2556 18.8881 65.8328 19.3119C65.4285 19.7358 64.9138 20.0674 64.3073 20.2886C63.7007 20.5097 62.9838 20.6203 62.1383 20.6203H60.1716C60.0797 20.6203 59.9878 20.5834 59.8775 20.5097C59.7856 20.436 59.7305 20.307 59.7305 20.1227V11.0932C59.7305 10.909 59.7856 10.78 59.8775 10.7063C59.9694 10.6326 60.0613 10.5957 60.1716 10.5957H62.267C63.1125 10.5957 63.8294 10.7063 64.4175 10.9458C65.0057 11.1854 65.4836 11.4987 65.888 11.9225C66.274 12.3463 66.5864 12.8623 66.7703 13.452C66.9908 14.0969 67.0827 14.7603 67.0827 15.479ZM66.0718 15.5343C66.0718 14.9446 65.9983 14.4102 65.8512 13.9127C65.7042 13.4151 65.4836 12.9913 65.1711 12.6227C64.8587 12.2542 64.4727 11.9778 64.0132 11.7751C63.5536 11.5724 62.9471 11.4618 62.2302 11.4618H60.7046V19.7726H62.2486C62.9287 19.7726 63.4985 19.6805 63.9764 19.5146C64.4543 19.3488 64.8403 19.0908 65.1528 18.7407C65.4652 18.3905 65.7042 17.9483 65.8512 17.4139C65.9983 16.8979 66.0718 16.2714 66.0718 15.5343Z" fill="#FBFBFB"/>
<path d="M75.3359 16.8983C75.3359 17.4511 75.2624 17.9671 75.1153 18.4278C74.9683 18.8884 74.7661 19.3123 74.472 19.644C74.1779 19.9941 73.8287 20.2521 73.4059 20.4548C72.9832 20.6391 72.4869 20.7496 71.9171 20.7496C71.3657 20.7496 70.8878 20.6575 70.4834 20.4916C70.079 20.3258 69.7298 20.0678 69.4541 19.7545C69.1784 19.4413 68.9762 19.0359 68.8291 18.5752C68.7005 18.1145 68.627 17.5985 68.627 17.0273C68.627 16.4744 68.7005 15.9585 68.8475 15.4978C68.9946 15.0371 69.1967 14.6317 69.4908 14.2816C69.7849 13.9314 70.1342 13.6735 70.5569 13.4892C70.9797 13.3049 71.476 13.1943 72.0458 13.1943C72.5972 13.1943 73.0751 13.2865 73.4794 13.4523C73.8838 13.6182 74.2331 13.8762 74.5088 14.1894C74.7845 14.5027 74.9867 14.9081 75.1337 15.3688C75.2807 15.811 75.3359 16.327 75.3359 16.8983ZM74.3801 16.9904C74.3801 16.585 74.3433 16.2165 74.2698 15.8479C74.1963 15.4793 74.0676 15.1661 73.8838 14.8897C73.7 14.6133 73.4611 14.3921 73.167 14.2263C72.8729 14.0604 72.4869 13.9867 72.0274 13.9867C71.6046 13.9867 71.2554 14.0604 70.9429 14.2078C70.6488 14.3553 70.3915 14.558 70.2077 14.8344C70.0239 15.0924 69.8768 15.4056 69.7849 15.7742C69.693 16.1427 69.6379 16.5297 69.6379 16.9351C69.6379 17.3405 69.6747 17.7275 69.7482 18.0776C69.8217 18.4462 69.9504 18.7594 70.1342 19.0359C70.318 19.3123 70.5569 19.5334 70.851 19.6808C71.1451 19.8467 71.5311 19.9204 71.9906 19.9204C72.4134 19.9204 72.7626 19.8467 73.0751 19.6993C73.3692 19.5518 73.6265 19.3491 73.8103 19.0727C73.9941 18.8147 74.1411 18.5015 74.2331 18.1329C74.325 17.8012 74.3801 17.4142 74.3801 16.9904Z" fill="#FBFBFB"/>
<path d="M86.5847 13.4708C86.5847 13.4892 86.5847 13.5261 86.5663 13.5629C86.5663 13.5998 86.5479 13.6366 86.5479 13.6735L84.3974 20.4732C84.379 20.5101 84.3606 20.5469 84.3422 20.5654C84.3055 20.5838 84.2687 20.6206 84.2319 20.6206C84.1952 20.6206 84.1217 20.6391 84.0481 20.6575C83.9746 20.6575 83.8827 20.6575 83.7908 20.6575C83.6805 20.6575 83.5886 20.6575 83.5151 20.6391C83.4416 20.6391 83.3681 20.6206 83.3313 20.6022C83.2761 20.5838 83.2394 20.5654 83.221 20.5469C83.1842 20.5285 83.1659 20.4916 83.1659 20.4548L81.5484 14.945L81.53 14.8897L81.5116 14.945L80.0044 20.4548C79.986 20.4916 79.9676 20.5285 79.9492 20.5469C79.9125 20.5654 79.8757 20.6022 79.8206 20.6022C79.7654 20.6206 79.7103 20.6206 79.6184 20.6391C79.5449 20.6391 79.453 20.6391 79.3611 20.6391C79.2508 20.6391 79.1773 20.6391 79.1037 20.6206C79.0302 20.6206 78.9751 20.6022 78.9199 20.5838C78.8648 20.5654 78.828 20.5469 78.8096 20.5285C78.7913 20.5101 78.7729 20.4732 78.7545 20.4364L76.604 13.6366C76.5856 13.5998 76.5856 13.5629 76.5672 13.5261C76.5672 13.4892 76.5488 13.4523 76.5488 13.4339C76.5488 13.3971 76.5488 13.3602 76.5672 13.3418C76.5856 13.3233 76.604 13.3049 76.6407 13.2865C76.6775 13.2681 76.7143 13.2681 76.7878 13.2681C76.8429 13.2681 76.9164 13.2681 76.99 13.2681C77.1002 13.2681 77.1921 13.2681 77.2473 13.2865C77.3208 13.2865 77.3576 13.3049 77.3943 13.3233C77.4311 13.3418 77.4495 13.3602 77.4679 13.3786C77.4862 13.3971 77.5046 13.4339 77.5046 13.4708L79.3427 19.5703L79.3611 19.6256L79.3794 19.5703L81.0521 13.4708C81.0705 13.4339 81.0705 13.3971 81.0888 13.3786C81.1072 13.3602 81.1256 13.3233 81.1624 13.3233C81.1991 13.3049 81.2359 13.3049 81.3094 13.2865C81.3646 13.2865 81.4381 13.2681 81.53 13.2681C81.6219 13.2681 81.6954 13.2681 81.7506 13.2865C81.8057 13.2865 81.8608 13.3049 81.8976 13.3233C81.9344 13.3418 81.9527 13.3602 81.9711 13.3786C81.9895 13.3971 82.0079 13.4339 82.0079 13.4708L83.8092 19.5703L83.8276 19.6256V19.5703L85.6656 13.4708C85.684 13.4339 85.684 13.3971 85.7024 13.3786C85.7208 13.3602 85.7392 13.3233 85.7759 13.3233C85.8127 13.3049 85.8678 13.3049 85.923 13.2865C85.9781 13.2865 86.07 13.2681 86.1803 13.2681C86.2538 13.2681 86.3273 13.2681 86.3825 13.2681C86.4376 13.2681 86.4744 13.2865 86.5111 13.3049C86.5479 13.3233 86.5663 13.3418 86.5663 13.3602C86.5663 13.3971 86.5847 13.4339 86.5847 13.4708Z" fill="#FBFBFB"/>
<path d="M94.0109 20.4728C94.0109 20.5097 94.0109 20.5281 93.9925 20.565C93.9741 20.5834 93.9557 20.6203 93.919 20.6203C93.8822 20.6387 93.8454 20.6571 93.7719 20.6571C93.6984 20.6571 93.6432 20.6755 93.5513 20.6755C93.4594 20.6755 93.3859 20.6755 93.3308 20.6571C93.2756 20.6387 93.2205 20.6387 93.1837 20.6203C93.147 20.6018 93.1286 20.5834 93.1102 20.565C93.0918 20.5466 93.0918 20.5097 93.0918 20.4728V16.3267C93.0918 15.9028 93.0551 15.5343 92.9999 15.2763C92.9264 14.9999 92.8345 14.7787 92.7058 14.576C92.5772 14.3918 92.3934 14.2259 92.1912 14.1338C91.989 14.0232 91.7316 13.9679 91.4559 13.9679C91.1067 13.9679 90.7391 14.0969 90.3899 14.3549C90.0406 14.6129 89.6546 14.9814 89.2686 15.4606V20.4728C89.2686 20.5097 89.2686 20.5281 89.2503 20.565C89.2319 20.5834 89.2135 20.6203 89.1767 20.6203C89.14 20.6387 89.1032 20.6571 89.0297 20.6571C88.9746 20.6755 88.901 20.6755 88.8091 20.6755C88.7172 20.6755 88.6437 20.6755 88.5886 20.6571C88.5334 20.6387 88.4783 20.6387 88.4415 20.6203C88.4048 20.6018 88.3864 20.5834 88.368 20.565C88.3496 20.5466 88.3496 20.5097 88.3496 20.4728V13.4888C88.3496 13.452 88.3496 13.4335 88.368 13.3967C88.3864 13.3782 88.4048 13.3414 88.4415 13.323C88.4783 13.3045 88.515 13.2861 88.5702 13.2861C88.6253 13.2861 88.6988 13.2677 88.7907 13.2677C88.8826 13.2677 88.9562 13.2677 89.0113 13.2861C89.0665 13.2861 89.1032 13.3045 89.14 13.323C89.1767 13.3414 89.1951 13.3598 89.2135 13.3967C89.2319 13.4151 89.2319 13.452 89.2319 13.4888V14.4839C89.6363 14.0416 90.0223 13.7099 90.4082 13.5072C90.7942 13.3045 91.1802 13.2124 91.5478 13.2124C92.0074 13.2124 92.3934 13.2861 92.7058 13.452C93.0183 13.5994 93.2756 13.8205 93.4594 14.0785C93.6432 14.3365 93.7903 14.6497 93.8822 14.9999C93.9741 15.35 94.0109 15.7738 94.0109 16.2714V20.4728Z" fill="#FBFBFB"/>
<path d="M97.4659 20.473C97.4659 20.5099 97.4659 20.5283 97.4475 20.5651C97.4292 20.602 97.4108 20.6204 97.374 20.6204C97.3372 20.6389 97.3005 20.6573 97.227 20.6573C97.1718 20.6757 97.0983 20.6757 97.0064 20.6757C96.9145 20.6757 96.841 20.6757 96.7858 20.6573C96.7307 20.6389 96.6755 20.6389 96.6388 20.6204C96.602 20.602 96.5836 20.5836 96.5653 20.5651C96.5469 20.5467 96.5469 20.5099 96.5469 20.473V10.0615C96.5469 10.0246 96.5469 10.0062 96.5653 9.96932C96.5836 9.9509 96.602 9.91404 96.6388 9.89561C96.6755 9.87719 96.7307 9.85876 96.7858 9.85876C96.841 9.85876 96.9145 9.84033 97.0064 9.84033C97.0983 9.84033 97.1718 9.84033 97.227 9.85876C97.2821 9.85876 97.3372 9.87719 97.374 9.89561C97.4108 9.91404 97.4292 9.93247 97.4475 9.96932C97.4659 9.98775 97.4659 10.0246 97.4659 10.0615V20.473Z" fill="#FBFBFB"/>
<path d="M106.215 16.8983C106.215 17.4511 106.141 17.9671 105.994 18.4278C105.847 18.8884 105.645 19.3123 105.351 19.644C105.057 19.9941 104.708 20.2521 104.285 20.4548C103.862 20.6575 103.366 20.7496 102.796 20.7496C102.245 20.7496 101.767 20.6575 101.362 20.4916C100.958 20.3258 100.609 20.0678 100.333 19.7545C100.057 19.4413 99.8551 19.0359 99.7081 18.5752C99.5794 18.1145 99.5059 17.5985 99.5059 17.0273C99.5059 16.4744 99.5794 15.9585 99.7264 15.4978C99.8735 15.0371 100.076 14.6317 100.37 14.2816C100.664 13.9314 101.013 13.6735 101.436 13.4892C101.859 13.3049 102.355 13.1943 102.925 13.1943C103.476 13.1943 103.954 13.2865 104.358 13.4523C104.763 13.6182 105.112 13.8762 105.388 14.1894C105.663 14.5027 105.866 14.9081 106.013 15.3688C106.141 15.811 106.215 16.327 106.215 16.8983ZM105.241 16.9904C105.241 16.585 105.204 16.2165 105.13 15.8479C105.057 15.4793 104.928 15.1661 104.744 14.8897C104.561 14.6133 104.322 14.3921 104.028 14.2263C103.733 14.0604 103.347 13.9867 102.888 13.9867C102.465 13.9867 102.116 14.0604 101.803 14.2078C101.491 14.3553 101.252 14.558 101.068 14.8344C100.884 15.0924 100.737 15.4056 100.645 15.7742C100.554 16.1427 100.498 16.5297 100.498 16.9351C100.498 17.3405 100.535 17.7275 100.609 18.0776C100.682 18.4462 100.811 18.7594 100.995 19.0359C101.179 19.3123 101.417 19.5334 101.712 19.6808C102.006 19.8467 102.392 19.9204 102.851 19.9204C103.274 19.9204 103.623 19.8467 103.936 19.6993C104.23 19.5518 104.487 19.3491 104.671 19.0727C104.855 18.8147 105.002 18.5015 105.094 18.1329C105.185 17.8012 105.241 17.4142 105.241 16.9904Z" fill="#FBFBFB"/>
<path d="M113.164 20.4728C113.164 20.5281 113.146 20.565 113.109 20.5834C113.072 20.6203 113.035 20.6387 112.98 20.6387C112.925 20.6571 112.852 20.6571 112.76 20.6571C112.668 20.6571 112.594 20.6571 112.539 20.6387C112.484 20.6203 112.429 20.6018 112.392 20.5834C112.355 20.5466 112.337 20.5097 112.337 20.4728V19.6989C112.024 20.0306 111.675 20.307 111.308 20.4913C110.922 20.6755 110.536 20.7677 110.131 20.7677C109.764 20.7677 109.433 20.7124 109.157 20.6203C108.863 20.5281 108.624 20.3807 108.422 20.2149C108.22 20.0306 108.073 19.8279 107.962 19.5699C107.852 19.3119 107.797 19.0355 107.797 18.7222C107.797 18.3353 107.87 18.0036 108.036 17.7087C108.201 17.4139 108.422 17.1927 108.716 16.99C109.01 16.8058 109.359 16.6584 109.764 16.5662C110.168 16.4741 110.627 16.4188 111.142 16.4188H112.245V15.8107C112.245 15.5158 112.208 15.2394 112.153 15.0183C112.098 14.7972 111.988 14.5945 111.859 14.447C111.712 14.2996 111.547 14.1706 111.326 14.0969C111.105 14.0232 110.83 13.9864 110.517 13.9864C110.205 13.9864 109.929 14.0232 109.69 14.0969C109.451 14.1706 109.231 14.2628 109.047 14.3549C108.863 14.447 108.716 14.5392 108.587 14.6129C108.459 14.6866 108.385 14.7235 108.33 14.7235C108.293 14.7235 108.275 14.7235 108.238 14.705C108.22 14.6866 108.183 14.6682 108.164 14.6497C108.146 14.6129 108.128 14.5945 108.128 14.5392C108.128 14.5023 108.109 14.447 108.109 14.3733C108.109 14.2628 108.109 14.1706 108.128 14.1154C108.146 14.0601 108.183 13.9864 108.256 13.9311C108.312 13.8758 108.44 13.7837 108.606 13.7099C108.771 13.6178 108.955 13.5441 109.175 13.4704C109.396 13.3967 109.617 13.3414 109.874 13.2861C110.113 13.2308 110.37 13.2124 110.609 13.2124C111.087 13.2124 111.491 13.2677 111.822 13.3783C112.153 13.4888 112.41 13.6547 112.613 13.8758C112.815 14.0969 112.962 14.3549 113.054 14.6682C113.146 14.9814 113.182 15.35 113.182 15.737V20.4728H113.164ZM112.245 17.1743H110.977C110.609 17.1743 110.278 17.2112 110.003 17.2665C109.727 17.3402 109.488 17.4323 109.304 17.5613C109.12 17.6903 108.973 17.8377 108.9 18.022C108.826 18.2063 108.771 18.409 108.771 18.6485C108.771 19.0539 108.9 19.3672 109.157 19.6068C109.414 19.8463 109.764 19.9569 110.223 19.9569C110.591 19.9569 110.922 19.8647 111.252 19.6805C111.565 19.4962 111.896 19.2013 112.263 18.8144V17.1743H112.245Z" fill="#FBFBFB"/>
<path d="M121.325 20.4729C121.325 20.5098 121.325 20.5466 121.306 20.565C121.288 20.5835 121.269 20.6203 121.233 20.6203C121.196 20.6203 121.159 20.6388 121.104 20.6572C121.049 20.6572 120.994 20.6756 120.92 20.6756C120.847 20.6756 120.773 20.6756 120.718 20.6572C120.663 20.6572 120.626 20.6388 120.589 20.6203C120.553 20.6019 120.534 20.5835 120.516 20.565C120.497 20.5466 120.497 20.5098 120.497 20.4729V19.4594C120.13 19.8648 119.744 20.1781 119.358 20.3992C118.953 20.6203 118.531 20.7493 118.071 20.7493C117.575 20.7493 117.134 20.6572 116.785 20.4545C116.435 20.2518 116.141 19.9938 115.921 19.6621C115.7 19.3304 115.535 18.9434 115.424 18.4827C115.314 18.0405 115.277 17.5614 115.277 17.0454C115.277 16.4557 115.332 15.9213 115.461 15.4422C115.59 14.9631 115.774 14.5577 116.031 14.226C116.288 13.8943 116.601 13.6363 116.968 13.452C117.336 13.2677 117.759 13.1756 118.255 13.1756C118.678 13.1756 119.064 13.2677 119.413 13.452C119.762 13.6363 120.111 13.9127 120.442 14.2813V10.0982C120.442 10.0614 120.442 10.0429 120.461 10.0061C120.479 9.96922 120.497 9.95079 120.534 9.95079C120.571 9.93236 120.626 9.91394 120.681 9.91394C120.736 9.89551 120.81 9.89551 120.902 9.89551C120.994 9.89551 121.067 9.89551 121.122 9.91394C121.178 9.93236 121.233 9.93236 121.269 9.95079C121.306 9.96922 121.325 9.98765 121.343 10.0061C121.361 10.0245 121.361 10.0614 121.361 10.0982V20.4729H121.325ZM120.406 15.4238C120.02 14.9631 119.652 14.5945 119.284 14.355C118.935 14.1154 118.549 13.9864 118.163 13.9864C117.814 13.9864 117.501 14.0786 117.262 14.2444C117.005 14.4103 116.803 14.6314 116.638 14.9078C116.472 15.1842 116.362 15.4975 116.288 15.8476C116.215 16.1977 116.178 16.5478 116.178 16.9164C116.178 17.3034 116.215 17.6719 116.27 18.0405C116.325 18.409 116.435 18.7407 116.582 19.0171C116.729 19.312 116.932 19.5331 117.171 19.6989C117.409 19.8648 117.722 19.9569 118.09 19.9569C118.273 19.9569 118.457 19.9385 118.623 19.8832C118.806 19.8279 118.972 19.7542 119.156 19.6252C119.339 19.5147 119.523 19.3488 119.725 19.1646C119.928 18.9803 120.13 18.7407 120.369 18.4643V15.4238H120.406Z" fill="#FBFBFB"/>
<path d="M133.639 16.8983C133.639 17.4511 133.565 17.9671 133.418 18.4278C133.271 18.8884 133.069 19.3123 132.775 19.644C132.481 19.9941 132.131 20.2521 131.709 20.4548C131.286 20.6391 130.79 20.7496 130.22 20.7496C129.668 20.7496 129.191 20.6575 128.786 20.4916C128.382 20.3258 128.033 20.0678 127.757 19.7545C127.481 19.4413 127.279 19.0359 127.132 18.5752C127.003 18.1145 126.93 17.5985 126.93 17.0273C126.93 16.4744 127.003 15.9585 127.15 15.4978C127.297 15.0371 127.499 14.6317 127.794 14.2816C128.088 13.9314 128.437 13.6735 128.86 13.4892C129.282 13.3049 129.779 13.1943 130.348 13.1943C130.9 13.1943 131.378 13.2865 131.782 13.4523C132.187 13.6182 132.536 13.8762 132.811 14.1894C133.087 14.5027 133.289 14.9081 133.436 15.3688C133.565 15.811 133.639 16.327 133.639 16.8983ZM132.664 16.9904C132.664 16.585 132.628 16.2165 132.554 15.8479C132.481 15.4793 132.352 15.1661 132.168 14.8897C131.984 14.6133 131.745 14.3921 131.451 14.2263C131.157 14.0604 130.771 13.9867 130.312 13.9867C129.889 13.9867 129.54 14.0604 129.227 14.2078C128.915 14.3553 128.676 14.558 128.492 14.8344C128.308 15.0924 128.161 15.4056 128.069 15.7742C127.977 16.1427 127.922 16.5297 127.922 16.9351C127.922 17.3405 127.959 17.7275 128.033 18.0776C128.106 18.4462 128.235 18.7594 128.419 19.0359C128.602 19.3123 128.841 19.5334 129.135 19.6808C129.429 19.8282 129.815 19.9204 130.275 19.9204C130.698 19.9204 131.047 19.8467 131.359 19.6993C131.654 19.5518 131.911 19.3491 132.095 19.0727C132.278 18.7963 132.426 18.5015 132.517 18.1329C132.628 17.8012 132.664 17.4142 132.664 16.9904Z" fill="#FBFBFB"/>
<path d="M141.359 20.4728C141.359 20.5097 141.359 20.5281 141.34 20.565C141.322 20.5834 141.303 20.6203 141.267 20.6203C141.23 20.6387 141.193 20.6571 141.12 20.6571C141.064 20.6755 140.991 20.6755 140.899 20.6755C140.807 20.6755 140.734 20.6755 140.678 20.6571C140.623 20.6387 140.568 20.6387 140.531 20.6203C140.495 20.6018 140.476 20.5834 140.458 20.565C140.439 20.5466 140.439 20.5097 140.439 20.4728V16.3267C140.439 15.9028 140.403 15.5343 140.348 15.2763C140.274 14.9999 140.182 14.7787 140.053 14.576C139.925 14.3918 139.741 14.2259 139.539 14.1338C139.337 14.0232 139.079 13.9679 138.804 13.9679C138.454 13.9679 138.087 14.0969 137.738 14.3549C137.388 14.6129 137.002 14.9814 136.616 15.4606V20.4728C136.616 20.5097 136.616 20.5281 136.598 20.565C136.58 20.5834 136.561 20.6203 136.524 20.6203C136.488 20.6387 136.451 20.6571 136.377 20.6571C136.322 20.6755 136.249 20.6755 136.157 20.6755C136.065 20.6755 135.991 20.6755 135.936 20.6571C135.881 20.6387 135.826 20.6387 135.789 20.6203C135.752 20.6018 135.734 20.5834 135.716 20.565C135.697 20.5466 135.697 20.5097 135.697 20.4728V13.4888C135.697 13.452 135.697 13.4335 135.716 13.3967C135.734 13.3782 135.752 13.3414 135.789 13.323C135.826 13.3045 135.863 13.2861 135.918 13.2861C135.973 13.2861 136.047 13.2677 136.138 13.2677C136.23 13.2677 136.304 13.2677 136.359 13.2861C136.414 13.2861 136.451 13.3045 136.488 13.323C136.524 13.3414 136.543 13.3598 136.561 13.3967C136.58 13.4151 136.58 13.452 136.58 13.4888V14.4839C136.984 14.0416 137.37 13.7099 137.756 13.5072C138.142 13.3045 138.528 13.2124 138.896 13.2124C139.355 13.2124 139.741 13.2861 140.053 13.452C140.366 13.5994 140.623 13.8205 140.807 14.0785C140.991 14.3365 141.138 14.6497 141.23 14.9999C141.322 15.35 141.359 15.7738 141.359 16.2714V20.4728Z" fill="#FBFBFB"/>
<path d="M150.824 20.0676C150.824 20.1781 150.824 20.2703 150.806 20.3255C150.787 20.3992 150.751 20.4545 150.714 20.4914C150.677 20.5282 150.622 20.5651 150.548 20.602C150.475 20.6388 150.383 20.6572 150.291 20.6941C150.199 20.7125 150.089 20.7309 149.979 20.7494C149.868 20.7678 149.758 20.7678 149.666 20.7678C149.317 20.7678 149.023 20.7125 148.784 20.6204C148.545 20.5282 148.343 20.3808 148.196 20.1965C148.049 20.0123 147.938 19.7727 147.865 19.4779C147.791 19.183 147.755 18.8513 147.755 18.4644V14.097H146.707C146.633 14.097 146.578 14.0602 146.541 14.0049C146.505 13.9496 146.486 13.839 146.486 13.7101C146.486 13.6363 146.486 13.5811 146.505 13.5442C146.523 13.4889 146.523 13.4521 146.56 13.4152C146.578 13.3784 146.597 13.3599 146.633 13.3415C146.67 13.3231 146.689 13.3231 146.725 13.3231H147.773V11.6093C147.773 11.5725 147.773 11.554 147.791 11.5172C147.81 11.4987 147.828 11.4619 147.865 11.4435C147.902 11.425 147.957 11.4066 148.012 11.4066C148.067 11.4066 148.141 11.3882 148.232 11.3882C148.324 11.3882 148.398 11.3882 148.453 11.4066C148.508 11.4066 148.563 11.425 148.6 11.4435C148.637 11.4619 148.655 11.4803 148.674 11.5172C148.692 11.5356 148.692 11.5725 148.692 11.6093V13.3231H150.622C150.659 13.3231 150.696 13.3231 150.714 13.3415C150.751 13.3599 150.769 13.3784 150.787 13.4152C150.806 13.4521 150.824 13.4889 150.843 13.5442C150.861 13.5995 150.861 13.6548 150.861 13.7101C150.861 13.839 150.843 13.9312 150.787 14.0049C150.751 14.0602 150.696 14.097 150.622 14.097H148.692V18.3169C148.692 18.8513 148.766 19.2567 148.913 19.5332C149.06 19.8096 149.335 19.957 149.74 19.957C149.868 19.957 149.979 19.9386 150.071 19.9201C150.162 19.9017 150.254 19.8648 150.328 19.828C150.401 19.7911 150.475 19.7727 150.53 19.7359C150.585 19.7174 150.64 19.699 150.677 19.699C150.695 19.699 150.732 19.699 150.751 19.7174C150.769 19.7359 150.787 19.7543 150.806 19.7727C150.824 19.8096 150.824 19.828 150.843 19.8833C150.824 19.9386 150.824 19.9938 150.824 20.0676Z" fill="#FBFBFB"/>
<path d="M158.306 20.473C158.306 20.5099 158.306 20.5283 158.287 20.5651C158.269 20.5836 158.251 20.6204 158.214 20.6204C158.177 20.6389 158.14 20.6573 158.067 20.6573C158.012 20.6757 157.938 20.6757 157.846 20.6757C157.754 20.6757 157.681 20.6757 157.626 20.6573C157.571 20.6389 157.515 20.6389 157.479 20.6204C157.442 20.602 157.423 20.5836 157.405 20.5651C157.387 20.5467 157.387 20.5099 157.387 20.473V16.3268C157.387 15.903 157.35 15.5344 157.295 15.2764C157.221 15 157.129 14.7789 157.001 14.5762C156.872 14.3919 156.688 14.2261 156.486 14.1339C156.284 14.0234 156.027 13.9681 155.751 13.9681C155.402 13.9681 155.034 14.0971 154.685 14.3551C154.336 14.6131 153.95 14.9816 153.564 15.4607V20.473C153.564 20.5099 153.564 20.5283 153.545 20.5651C153.527 20.5836 153.508 20.6204 153.472 20.6204C153.435 20.6389 153.398 20.6573 153.325 20.6573C153.269 20.6757 153.196 20.6757 153.104 20.6757C153.012 20.6757 152.939 20.6757 152.883 20.6573C152.828 20.6389 152.773 20.6389 152.736 20.6204C152.7 20.602 152.681 20.5836 152.663 20.5651C152.645 20.5467 152.645 20.5099 152.645 20.473V10.0615C152.645 10.0246 152.645 10.0062 152.663 9.96932C152.681 9.9509 152.7 9.91404 152.736 9.89561C152.773 9.87719 152.828 9.85876 152.883 9.85876C152.939 9.85876 153.012 9.84033 153.104 9.84033C153.196 9.84033 153.269 9.84033 153.325 9.85876C153.38 9.85876 153.435 9.87719 153.472 9.89561C153.508 9.91404 153.527 9.93247 153.545 9.96932C153.564 9.98775 153.564 10.0246 153.564 10.0615V14.4288C153.95 14.005 154.317 13.6917 154.703 13.489C155.089 13.2863 155.457 13.1941 155.843 13.1941C156.302 13.1941 156.688 13.2679 157.001 13.4337C157.313 13.5811 157.571 13.8022 157.754 14.0602C157.938 14.3182 158.085 14.6315 158.177 14.9816C158.269 15.3317 158.306 15.7556 158.306 16.2531V20.473Z" fill="#FBFBFB"/>
<path d="M166.541 16.6217C166.541 16.806 166.486 16.935 166.394 17.0087C166.302 17.0824 166.21 17.1193 166.1 17.1193H161.339C161.339 17.5431 161.376 17.9485 161.468 18.2986C161.56 18.6488 161.689 18.9436 161.891 19.2016C162.093 19.4596 162.332 19.6438 162.663 19.7728C162.994 19.9018 163.361 19.9755 163.821 19.9755C164.152 19.9755 164.427 19.9387 164.685 19.8834C164.942 19.8281 165.163 19.7544 165.346 19.6991C165.53 19.6254 165.696 19.5701 165.806 19.5148C165.935 19.4596 166.008 19.4227 166.063 19.4227C166.1 19.4227 166.118 19.4227 166.155 19.4411C166.174 19.4596 166.21 19.478 166.21 19.5148C166.229 19.5517 166.229 19.5886 166.247 19.6438C166.247 19.6991 166.265 19.7544 166.265 19.8281C166.265 19.865 166.265 19.9018 166.265 19.9387C166.265 19.9755 166.247 19.994 166.247 20.0308C166.247 20.0677 166.229 20.0861 166.21 20.1045C166.192 20.123 166.174 20.1598 166.155 20.1782C166.137 20.1967 166.045 20.2519 165.916 20.3072C165.788 20.3625 165.604 20.4362 165.383 20.4915C165.163 20.5468 164.924 20.6205 164.63 20.6574C164.335 20.7126 164.041 20.7311 163.711 20.7311C163.177 20.7311 162.7 20.6574 162.277 20.4915C161.854 20.3257 161.505 20.0861 161.229 19.7728C160.953 19.4596 160.733 19.0542 160.586 18.5935C160.439 18.1328 160.365 17.58 160.365 16.9719C160.365 16.3822 160.439 15.8478 160.586 15.3871C160.733 14.9264 160.953 14.521 161.229 14.1893C161.505 13.8576 161.854 13.618 162.258 13.4338C162.663 13.2679 163.104 13.1758 163.582 13.1758C164.115 13.1758 164.556 13.2679 164.924 13.4338C165.291 13.618 165.604 13.8392 165.843 14.134C166.082 14.4289 166.265 14.779 166.376 15.166C166.486 15.5529 166.541 15.9768 166.541 16.4006V16.6217ZM165.604 16.3453C165.622 15.6082 165.457 15.0185 165.089 14.6131C164.74 14.1893 164.225 13.9866 163.545 13.9866C163.196 13.9866 162.883 14.0603 162.626 14.1893C162.369 14.3183 162.13 14.5026 161.964 14.7053C161.781 14.9264 161.633 15.166 161.542 15.4608C161.45 15.7556 161.395 16.0505 161.376 16.3453H165.604Z" fill="#FBFBFB"/>
<path d="M87.963 35.5652C87.7792 34.736 87.4667 33.9989 87.044 33.3723C86.6212 32.7274 86.0514 32.2114 85.3713 31.8429C84.6912 31.4743 83.8641 31.29 82.9267 31.29C82.4856 31.29 82.0628 31.3453 81.6768 31.4375C81.2908 31.5296 80.8864 31.6954 80.5188 31.8981C80.1512 32.1008 79.7836 32.3588 79.4344 32.6537C79.2873 32.7642 79.1403 32.8932 78.9932 33.0407V31.29H76.7324V49.7728H79.1403V43.9497C79.2506 44.0419 79.3609 44.134 79.4528 44.2261C79.7652 44.4841 80.0961 44.7053 80.4269 44.8711C80.7578 45.0554 81.107 45.1844 81.4562 45.2581C81.8055 45.3502 82.1731 45.3871 82.5591 45.3871C83.4597 45.3871 84.2869 45.2028 85.0037 44.8711C85.7206 44.521 86.3271 44.0234 86.805 43.3969C87.2829 42.7704 87.6505 41.9964 87.8895 41.1119C88.1284 40.2458 88.2571 39.2507 88.2571 38.1635C88.2387 37.2605 88.1468 36.376 87.963 35.5652ZM85.5735 40.2089C85.4448 40.7802 85.261 41.3146 85.0037 41.7753C84.7464 42.2175 84.4339 42.5677 84.0295 42.8441C83.6435 43.1021 83.184 43.2311 82.651 43.2311C82.0444 43.2311 81.493 43.0468 80.9232 42.6414C80.3534 42.236 79.7652 41.6647 79.1403 40.9276V35.8416C79.4895 35.4178 79.8204 35.0492 80.1328 34.7544C80.4637 34.4411 80.7945 34.1832 81.0886 33.9805C81.3827 33.7962 81.6768 33.6488 81.9341 33.575C82.2099 33.5013 82.4856 33.4461 82.7797 33.4461C83.3495 33.4461 83.809 33.575 84.1766 33.833C84.5442 34.091 84.8567 34.4411 85.0772 34.8834C85.3162 35.3441 85.4816 35.8785 85.5919 36.4682C85.7022 37.0763 85.7573 37.7397 85.7573 38.4031C85.7573 39.0296 85.7022 39.6193 85.5735 40.2089Z" fill="#FBFBFB"/>
<path d="M102.41 35.5652C102.226 34.736 101.914 33.9989 101.491 33.3723C101.068 32.7274 100.499 32.2114 99.8186 31.8429C99.1385 31.4743 98.3114 31.29 97.374 31.29C96.9328 31.29 96.5101 31.3453 96.1241 31.4375C95.7381 31.5296 95.3521 31.6954 94.9661 31.8981C94.5985 32.1008 94.2309 32.3588 93.8816 32.6537C93.7346 32.7642 93.5876 32.8932 93.4405 33.0407V31.29H91.1797V49.7728H93.5876V43.9497C93.6978 44.0419 93.8081 44.134 93.9 44.2261C94.2125 44.4841 94.5434 44.7053 94.8742 44.8711C95.2051 45.0554 95.5543 45.1844 95.9035 45.2581C96.2527 45.3502 96.6204 45.3871 97.0064 45.3871C97.907 45.3871 98.7341 45.2028 99.451 44.8711C100.168 44.521 100.774 44.0234 101.252 43.3969C101.73 42.7704 102.098 41.9964 102.337 41.1119C102.576 40.2458 102.704 39.2507 102.704 38.1635C102.686 37.2605 102.594 36.376 102.41 35.5652ZM100.021 40.2089C99.8921 40.7802 99.7083 41.3146 99.451 41.7753C99.1936 42.2175 98.8812 42.5677 98.4768 42.8441C98.0908 43.1021 97.6313 43.2311 97.0983 43.2311C96.4917 43.2311 95.9403 43.0468 95.3705 42.6414C94.8007 42.236 94.2125 41.6647 93.5876 40.9276V35.8416C93.9368 35.4178 94.2676 35.0492 94.5801 34.7544C94.911 34.4411 95.2418 34.1832 95.5359 33.9805C95.83 33.7962 96.1241 33.6488 96.3814 33.575C96.6571 33.5013 96.9328 33.4461 97.2269 33.4461C97.7967 33.4461 98.2562 33.575 98.6238 33.833C98.9915 34.091 99.3039 34.4411 99.5245 34.8834C99.7635 35.3441 99.9289 35.8785 100.039 36.4682C100.149 37.0763 100.205 37.7397 100.205 38.4031C100.205 39.0296 100.131 39.6193 100.021 40.2089Z" fill="#FBFBFB"/>
<path d="M143.436 33.1882C142.921 32.5801 142.259 32.101 141.487 31.7877C140.715 31.4744 139.833 31.3086 138.822 31.3086C137.775 31.3086 136.837 31.4929 136.028 31.843C135.22 32.1931 134.54 32.7091 134.007 33.354C133.473 33.999 133.069 34.7545 132.812 35.6391C132.554 36.5052 132.426 37.445 132.426 38.4585C132.426 39.5088 132.554 40.4671 132.793 41.2963C133.051 42.144 133.437 42.8995 133.951 43.5076C134.466 44.1157 135.128 44.5948 135.9 44.9265C136.672 45.2582 137.554 45.4056 138.565 45.4056C139.613 45.4056 140.55 45.2214 141.34 44.8528C142.149 44.4843 142.829 43.9683 143.362 43.3233C143.895 42.6784 144.3 41.9044 144.575 41.0383C144.833 40.1722 144.98 39.2324 144.98 38.2189C144.98 37.187 144.851 36.2287 144.594 35.3811C144.355 34.5334 143.95 33.7963 143.436 33.1882ZM142.498 38.3663C142.498 39.0666 142.425 39.73 142.259 40.3381C142.112 40.9278 141.873 41.4253 141.579 41.8491C141.285 42.2545 140.881 42.5862 140.421 42.8258C139.943 43.0653 139.355 43.1759 138.694 43.1759C137.958 43.1759 137.352 43.0469 136.874 42.8074C136.396 42.5678 136.028 42.2177 135.734 41.7939C135.44 41.3516 135.238 40.8356 135.109 40.2459C134.981 39.6378 134.907 38.9929 134.907 38.311C134.907 37.6108 134.981 36.9474 135.146 36.3577C135.293 35.7681 135.532 35.2705 135.845 34.8467C136.139 34.4413 136.543 34.1096 137.003 33.87C137.48 33.6305 138.069 33.5199 138.73 33.5199C139.466 33.5199 140.072 33.6489 140.532 33.9069C141.01 34.1649 141.377 34.4966 141.671 34.9388C141.965 35.3811 142.168 35.897 142.296 36.4867C142.425 37.058 142.498 37.7029 142.498 38.3663Z" fill="#FBFBFB"/>
<path d="M68.4625 27.3467H65.6135L59.6582 45.3872H62.0845L63.4079 40.2091H70.5579L71.9365 45.3872H74.3995L68.4625 27.3467ZM64.1798 38.0347L66.9553 30.1108L69.7859 38.0347H64.1798Z" fill="#FBFBFB"/>
<path d="M121.472 38.0527C121.214 37.4999 120.884 37.0208 120.461 36.6154C120.056 36.21 119.578 35.8598 119.064 35.5834C118.568 35.307 118.053 35.0306 117.538 34.791C117.024 34.5515 116.527 34.3119 116.031 34.0724C115.572 33.8512 115.149 33.5933 114.781 33.2984C114.432 33.022 114.156 32.7272 113.936 32.377C113.733 32.0453 113.642 31.6399 113.642 31.1792C113.642 30.866 113.697 30.5527 113.807 30.2579C113.917 29.9815 114.083 29.7419 114.303 29.5208C114.524 29.3181 114.818 29.1338 115.149 29.0048C115.498 28.8758 115.921 28.8021 116.417 28.8021C116.913 28.8021 117.373 28.8574 117.759 28.9864C118.163 29.1154 118.512 29.2444 118.788 29.3918C119.082 29.5576 119.34 29.6866 119.523 29.8156L120.516 27.7333C120.406 27.6227 120.203 27.4937 119.891 27.3279C119.615 27.1805 119.284 27.0331 118.917 26.9225C118.568 26.8119 118.182 26.7014 117.796 26.6277C117.391 26.5539 116.987 26.5171 116.601 26.5171C115.829 26.5171 115.094 26.6277 114.432 26.8304C113.77 27.0515 113.182 27.3648 112.704 27.7702C112.226 28.1756 111.84 28.6915 111.565 29.2812C111.307 29.8709 111.16 30.5343 111.16 31.2714C111.16 32.0269 111.289 32.6903 111.546 33.2431C111.803 33.796 112.134 34.2751 112.557 34.6805C112.961 35.0859 113.439 35.436 113.954 35.7308C114.45 36.0073 114.965 36.2837 115.48 36.5232C115.994 36.7628 116.491 37.0023 116.968 37.2419C117.428 37.463 117.851 37.721 118.218 37.9974C118.568 38.2554 118.843 38.5687 119.045 38.9188C119.248 39.2505 119.34 39.6559 119.34 40.1166C119.34 40.5773 119.266 41.0011 119.101 41.3697C118.935 41.7198 118.715 42.033 118.421 42.2726C118.126 42.5122 117.777 42.7149 117.354 42.8439C116.932 42.9729 116.472 43.0466 115.958 43.0466C115.314 43.0466 114.763 42.9729 114.285 42.8254C113.789 42.678 113.384 42.5122 113.035 42.3279C112.686 42.1436 112.392 41.9778 112.189 41.8303L111.693 44.3181C111.969 44.4839 112.318 44.6313 112.723 44.7787C113.127 44.9262 113.586 45.0552 114.101 45.1657C114.616 45.2763 115.186 45.3316 115.774 45.3316C116.638 45.3316 117.446 45.2026 118.182 44.9815C118.917 44.7419 119.578 44.3918 120.112 43.9127C120.663 43.452 121.086 42.8807 121.398 42.1989C121.692 41.5355 121.858 40.78 121.858 39.9323C121.876 39.2689 121.729 38.624 121.472 38.0527Z" fill="#FBFBFB"/>
<path d="M129.763 43.0099C129.634 43.0652 129.505 43.102 129.34 43.1389C129.193 43.1757 129.027 43.1942 128.844 43.1942C128.108 43.1942 127.851 42.8993 127.722 42.6598C127.483 42.2359 127.373 41.5725 127.373 40.7065V33.6671H130.296V31.5111H127.373V28.876L124.965 29.9448V31.5111H123.66V33.6671H124.965V40.9276C124.965 41.6463 125.039 42.2728 125.167 42.8072C125.296 43.3784 125.535 43.8391 125.829 44.2261C126.142 44.6131 126.546 44.8895 127.042 45.0922C127.502 45.2765 128.072 45.3686 128.733 45.3686C128.935 45.3686 129.138 45.3502 129.34 45.3318C129.542 45.3133 129.744 45.2765 129.928 45.2212C130.13 45.1659 130.296 45.1106 130.461 45.0554L130.093 42.8625C130.001 42.9178 129.891 42.9546 129.763 43.0099Z" fill="#FBFBFB"/>
<path d="M153.27 31.3085C153.233 31.3085 153.196 31.3085 153.178 31.3085C152.884 31.3085 152.571 31.3453 152.296 31.419C152.002 31.4927 151.689 31.6402 151.377 31.8244C151.083 32.0087 150.77 32.2851 150.458 32.6168C150.366 32.7274 150.256 32.838 150.164 32.9485V31.29H147.848V45.3687H150.256V36.3023C150.568 35.8048 150.862 35.3809 151.119 35.0308C151.395 34.6807 151.652 34.3859 151.873 34.1647C152.094 33.962 152.314 33.8146 152.516 33.7225C152.7 33.6303 152.884 33.5935 153.068 33.5935C153.123 33.5935 153.178 33.5935 153.252 33.5935L153.674 33.6303V31.3085H153.27Z" fill="#FBFBFB"/>
<path d="M165.292 42.3465C165.237 42.365 165.182 42.4018 165.127 42.4203C164.924 42.5124 164.667 42.623 164.336 42.7335C164.024 42.8441 163.656 42.9547 163.215 43.0468C162.792 43.1389 162.296 43.1942 161.763 43.1942C161.009 43.1942 160.384 43.0836 159.888 42.8809C159.392 42.6782 159.006 42.365 158.693 41.978C158.381 41.591 158.16 41.0935 158.032 40.5407C157.921 40.0615 157.848 39.5271 157.83 38.9559H165.807C166.046 38.9559 166.303 38.8637 166.542 38.6979C166.818 38.4952 166.965 38.1635 166.965 37.7028V37.3711C166.965 36.5787 166.854 35.8048 166.652 35.0861C166.45 34.349 166.101 33.6856 165.66 33.1328C165.2 32.5615 164.612 32.1193 163.914 31.7876C163.215 31.4559 162.37 31.29 161.377 31.29C160.476 31.29 159.631 31.4559 158.877 31.7692C158.124 32.1008 157.48 32.58 156.947 33.1881C156.414 33.7962 156.01 34.5517 155.716 35.4178C155.44 36.2839 155.293 37.2606 155.293 38.3478C155.293 39.4719 155.422 40.4669 155.697 41.333C155.973 42.2176 156.377 42.9547 156.91 43.5443C157.444 44.1524 158.124 44.6131 158.914 44.908C159.686 45.2028 160.587 45.3687 161.579 45.3687C162.186 45.3687 162.756 45.3134 163.27 45.2212C163.785 45.1291 164.244 45.0185 164.63 44.908C164.888 44.8343 165.108 44.7606 165.292 44.6868V42.3465ZM158.087 35.8048C158.234 35.3441 158.473 34.9387 158.749 34.607C159.024 34.2753 159.392 33.9989 159.796 33.7962C160.201 33.5935 160.697 33.4829 161.248 33.4829C162.333 33.4829 163.123 33.7962 163.675 34.4411C164.171 35.0308 164.447 35.8416 164.465 36.8551H157.848C157.885 36.4866 157.977 36.1365 158.087 35.8048Z" fill="#FBFBFB"/>
</g>
<defs>
<clipPath id="clip0_1_11755">
<rect width="198.971" height="60" fill="white" transform="translate(0.324219)"/>
</clipPath>
</defs>
</svg>
