<svg width="193" height="60" viewBox="0 0 193 60" fill="none" xmlns="http://www.w3.org/2000/svg">
<g clip-path="url(#clip0_1_12801)">
<path d="M50.0248 12.105L38.1244 5.23682L11.6359 22.4903L18.1613 28.0645C18.1723 28.0534 36.3216 14.9364 36.3216 14.9364C36.5212 14.7972 36.7605 14.7264 37.0036 14.7344C37.2468 14.7423 37.4809 14.8287 37.6709 14.9806C39.0932 16.143 53.0995 27.5922 54.0728 28.3963V19.1059C54.0705 17.6867 53.6954 16.2929 52.985 15.0642C52.2745 13.8355 51.2538 12.815 50.0248 12.105ZM18.0838 42.011L25.0184 36.835C20.433 32.9187 0.719778 16.0645 0.719778 16.0645C-0.277826 18.0221 0.259686 24.3152 0.133603 26.494C0.835907 27.0989 16.8064 40.9094 18.0838 42.011Z" fill="#8A47CB"/>
<path d="M34.8615 29.48L28.3804 23.4081L19.8864 29.5353L26.832 35.4745L34.8615 29.48ZM9.87715 20.986L35.9896 3.99798L31.1454 1.19983C29.9171 0.48899 28.5235 0.113765 27.1044 0.111824C25.6854 0.109883 24.2907 0.481293 23.0606 1.18877L4.1813 12.0938C3.28048 12.6121 2.48812 13.2993 1.84766 14.1178C2.92157 15.0468 8.6683 19.9585 9.87715 20.986ZM44.1297 38.1731L18.0725 55.9242C20.4571 57.1641 24.2672 60.116 27.0864 59.8837C28.5064 59.8873 29.9024 59.5174 31.1343 58.8109L50.0136 47.9058C50.9143 47.3875 51.7067 46.7003 52.3472 45.8819C51.3043 44.9307 45.2998 39.2636 44.1297 38.1731Z" fill="#8A47CB"/>
<path d="M36.4991 31.0175L27.4521 37.7751L18.6926 44.3225C18.5001 44.4641 18.268 44.5415 18.029 44.5437C17.764 44.541 17.5087 44.4428 17.3101 44.2672C15.9553 43.0949 0.971342 30.1559 0.134107 29.4138L0.123047 40.894C0.125299 42.3132 0.500422 43.707 1.21085 44.9357C1.92127 46.1644 2.94206 47.1849 4.17097 47.8949L15.9608 54.7078L42.4825 36.6248L36.4991 31.0175ZM36.9304 17.2368L30.2171 22.0811C34.8268 26.4121 53.476 43.9244 53.476 43.9244C53.8602 42.9639 54.0591 41.9394 54.0622 40.905V31.2497C53.2349 30.5717 38.2687 18.3284 36.9304 17.2368Z" fill="#8A47CB"/>
</g>
<path d="M68.0897 41V19.1818H82.7914V22.9851H72.7026V28.1839H82.035V31.9872H72.7026V37.1967H82.834V41H68.0897ZM94.1932 41H86.4588V19.1818H94.2571C96.4517 19.1818 98.3409 19.6186 99.9247 20.4922C101.509 21.3587 102.727 22.6051 103.579 24.2315C104.438 25.858 104.868 27.804 104.868 30.0696C104.868 32.3423 104.438 34.2955 103.579 35.929C102.727 37.5625 101.501 38.8161 99.9034 39.6896C98.3125 40.5632 96.4091 41 94.1932 41ZM91.0717 37.0476H94.0014C95.3651 37.0476 96.5121 36.8061 97.4425 36.3232C98.38 35.8331 99.0831 35.0767 99.5518 34.054C100.028 33.0241 100.266 31.696 100.266 30.0696C100.266 28.4574 100.028 27.1399 99.5518 26.1172C99.0831 25.0945 98.3835 24.3416 97.4531 23.8587C96.5227 23.3757 95.3757 23.1342 94.0121 23.1342H91.0717V37.0476ZM121.762 19.1818H126.374V33.3509C126.374 34.9418 125.994 36.3338 125.235 37.527C124.482 38.7202 123.427 39.6506 122.07 40.3182C120.714 40.9787 119.134 41.3089 117.33 41.3089C115.519 41.3089 113.935 40.9787 112.578 40.3182C111.222 39.6506 110.167 38.7202 109.414 37.527C108.661 36.3338 108.285 34.9418 108.285 33.3509V19.1818H112.898V32.9567C112.898 33.7876 113.079 34.5263 113.441 35.1726C113.811 35.8189 114.329 36.3267 114.997 36.696C115.664 37.0653 116.442 37.25 117.33 37.25C118.225 37.25 119.002 37.0653 119.663 36.696C120.33 36.3267 120.845 35.8189 121.208 35.1726C121.577 34.5263 121.762 33.7876 121.762 32.9567V19.1818ZM144.637 26.2344C144.488 25.7159 144.278 25.2578 144.009 24.8601C143.739 24.4553 143.408 24.1143 143.018 23.8374C142.634 23.5533 142.194 23.3366 141.697 23.1875C141.207 23.0384 140.663 22.9638 140.067 22.9638C138.952 22.9638 137.972 23.2408 137.126 23.7947C136.288 24.3487 135.635 25.1548 135.166 26.2131C134.697 27.2642 134.463 28.5497 134.463 30.0696C134.463 31.5895 134.694 32.8821 135.156 33.9474C135.617 35.0128 136.271 35.826 137.116 36.3871C137.961 36.9411 138.959 37.218 140.109 37.218C141.153 37.218 142.045 37.0334 142.783 36.6641C143.529 36.2876 144.097 35.7585 144.488 35.0767C144.886 34.3949 145.085 33.5888 145.085 32.6584L146.022 32.7969H140.397V29.3239H149.527V32.0724C149.527 33.9901 149.122 35.6378 148.312 37.0156C147.503 38.3864 146.388 39.4446 144.967 40.1903C143.547 40.929 141.92 41.2983 140.088 41.2983C138.043 41.2983 136.246 40.8473 134.697 39.9453C133.149 39.0362 131.942 37.7472 131.075 36.0781C130.216 34.402 129.786 32.4134 129.786 30.1122C129.786 28.3437 130.042 26.767 130.553 25.3821C131.072 23.9901 131.796 22.8111 132.727 21.8452C133.657 20.8793 134.74 20.1442 135.976 19.6399C137.212 19.1357 138.55 18.8835 139.992 18.8835C141.228 18.8835 142.379 19.0646 143.444 19.4268C144.509 19.782 145.454 20.2862 146.278 20.9396C147.109 21.593 147.787 22.3707 148.312 23.2727C148.838 24.1676 149.175 25.1548 149.325 26.2344H144.637ZM152.992 41V19.1818H167.694V22.9851H157.605V28.1839H166.937V31.9872H157.605V37.1967H167.736V41H152.992ZM189.61 19.1818V41H185.626L176.134 27.2678H175.974V41H171.361V19.1818H175.409L184.827 32.9034H185.019V19.1818H189.61Z" fill="#070707"/>
<defs>
<clipPath id="clip0_1_12801">
<rect width="54.1936" height="60" fill="white"/>
</clipPath>
</defs>
</svg>
