<svg width="200" height="60" viewBox="0 0 200 60" fill="none" xmlns="http://www.w3.org/2000/svg">
<g clip-path="url(#clip0_1_11713)">
<path d="M11.5031 0.5H187.73C193.804 0.5 198.733 5.42952 198.733 11.5031V48.4049C198.733 54.4785 193.804 59.408 187.73 59.408H11.5031C5.42952 59.408 0.5 54.4785 0.5 48.4049V11.5031C0.5 5.42952 5.42952 0.5 11.5031 0.5Z" fill="#191919" stroke="#F0F0F0"/>
<path d="M45.0549 24.4601L39.6991 29.7791L23.9629 13.7485C24.7543 13.2699 25.785 13.1963 26.6868 13.7301L45.0549 24.4601Z" fill="#00F076"/>
<path d="M45.1846 35.3928L26.6692 46.1965C25.565 46.8406 24.2766 46.583 23.4668 45.81L39.6815 29.7793L45.1846 35.3928Z" fill="#F73448"/>
<path d="M50.5221 32.264L45.2215 35.356L45.1847 35.3744L39.6816 29.7609L45.0375 24.4419L45.0743 24.4603L50.5037 27.6259C52.3074 28.675 52.3074 31.2333 50.5221 32.264Z" fill="#FFCA00"/>
<path d="M23.4669 45.81C23.4485 45.7916 23.4485 45.7916 23.4301 45.7732C22.9516 45.2947 22.6387 44.6505 22.6387 43.8775V16.0493C22.6387 15.0554 23.154 14.2456 23.8902 13.7855C23.9086 13.7855 23.9086 13.7671 23.927 13.7671L39.6632 29.7978L23.4669 45.81Z" fill="#00D2FF"/>
<path d="M82.1596 33.7545H80.0247H74.4664V35.8895H79.859C79.2149 38.2637 77.0431 40.0122 74.4664 40.0122C71.3744 40.0122 68.8713 37.5091 68.8713 34.4171C68.8713 31.325 71.3744 28.822 74.4664 28.822C75.9204 28.822 77.2639 29.3741 78.2578 30.2944L79.767 28.7852C78.3866 27.4784 76.5277 26.687 74.4664 26.687C70.1965 26.687 66.7363 30.1471 66.7363 34.4171C66.7363 38.687 70.1965 42.1471 74.4664 42.1471C78.7363 42.1471 82.1965 38.687 82.1965 34.4171C82.178 34.1962 82.178 33.9754 82.1596 33.7545Z" fill="#FBFBFB"/>
<path d="M88.2333 32.1533C85.5094 32.1533 83.3008 34.3803 83.3008 37.1226C83.3008 39.865 85.5094 42.092 88.2333 42.092C90.9572 42.092 93.1658 39.865 93.1658 37.1226C93.1842 34.3803 90.9572 32.1533 88.2333 32.1533ZM88.2333 40.1226C86.7425 40.1226 85.5278 38.8159 85.5278 37.1963C85.5278 35.5766 86.7425 34.2699 88.2333 34.2699C89.7241 34.2699 90.9388 35.5766 90.9388 37.1963C90.9388 38.8159 89.7241 40.1226 88.2333 40.1226Z" fill="#FBFBFB"/>
<path d="M99.2392 32.1533C96.5152 32.1533 94.3066 34.3803 94.3066 37.1226C94.3066 39.865 96.5152 42.092 99.2392 42.092C101.963 42.092 104.172 39.865 104.172 37.1226C104.172 34.3803 101.963 32.1533 99.2392 32.1533ZM99.2392 40.1226C97.7484 40.1226 96.5336 38.8159 96.5336 37.1963C96.5336 35.5766 97.7484 34.2699 99.2392 34.2699C100.73 34.2699 101.945 35.5766 101.945 37.1963C101.926 38.8159 100.73 40.1226 99.2392 40.1226Z" fill="#FBFBFB"/>
<path d="M117.682 26.687H115.547V42.2944H117.682V26.687Z" fill="#FBFBFB"/>
<path d="M126.443 38.4108C126.13 39.0734 125.578 39.5703 124.897 39.8464C124.179 40.1225 123.387 40.1225 122.67 39.8096C122.21 39.6071 121.823 39.3127 121.529 38.9262L128.78 36.0918L128.67 35.7237C128.633 35.5765 128.578 35.4476 128.522 35.3188C128.026 34.0673 127.087 33.0734 125.854 32.5397C124.621 32.0059 123.259 31.9691 121.989 32.466C120.737 32.963 119.743 33.9016 119.21 35.1347C118.676 36.3679 118.639 37.7298 119.136 38.9998C119.633 40.2513 120.572 41.2452 121.805 41.7789C122.449 42.055 123.13 42.2022 123.829 42.2022C124.455 42.2022 125.081 42.0918 125.67 41.8525C126.866 41.374 127.841 40.4906 128.394 39.3127L128.578 38.9078L126.627 38.0611L126.443 38.4108ZM125.78 34.9691L120.94 36.8648C120.976 36.5519 121.05 36.2574 121.179 35.963C121.492 35.2452 122.062 34.7114 122.78 34.417C123.13 34.2881 123.48 34.2145 123.829 34.2145C124.547 34.2145 125.246 34.4722 125.78 34.9691Z" fill="#FBFBFB"/>
<path d="M112.307 32.1535V33.0369C111.589 32.4848 110.706 32.1535 109.767 32.1535C107.301 32.1535 105.295 34.3805 105.295 37.1228C105.295 39.8652 107.301 42.0922 109.767 42.0922C110.706 42.0922 111.589 41.7609 112.307 41.2087V42.2762C112.307 42.8836 111.865 44.5952 109.859 44.5952C107.853 44.5952 107.283 42.7915 107.283 42.7915L105.35 43.6934C105.35 43.6934 106.086 46.5277 110.062 46.5277C112.215 46.5277 113.319 45.2762 113.89 44.1351C114.277 43.3621 114.461 42.4971 114.461 41.632V32.1167H112.307V32.1535ZM109.767 40.1228C108.405 40.1228 107.319 38.8161 107.319 37.1965C107.319 35.5768 108.424 34.2701 109.767 34.2701C111.129 34.2701 112.215 35.5768 112.215 37.1965C112.215 38.8161 111.111 40.1228 109.767 40.1228Z" fill="#FBFBFB"/>
<path d="M138.295 26.687H136.16V42.2944H138.295V26.687Z" fill="#FBFBFB"/>
<path d="M141.277 26.687V28.822C142.768 28.822 143.983 30.1287 143.983 31.7484C143.983 33.368 142.768 34.6747 141.277 34.6747V36.6257C144.001 36.6257 146.21 34.3987 146.21 31.6563C146.228 28.914 144.02 26.687 141.277 26.687Z" fill="#FBFBFB"/>
<path d="M141.296 26.687H137.707V28.822H141.296V26.687Z" fill="#FBFBFB"/>
<path d="M141.296 34.6562H137.707V36.6256H141.296V34.6562Z" fill="#FBFBFB"/>
<path d="M149.467 26.687H147.332V42.2944H149.467V26.687Z" fill="#FBFBFB"/>
<path d="M156.441 40.9322L156.699 40.6561V42.1469H158.503V35.7052C158.503 35.0978 158.429 34.5825 158.282 34.1408C158.135 33.7175 157.914 33.3678 157.619 33.1101C157.325 32.834 156.92 32.6316 156.441 32.5027C155.963 32.3739 155.356 32.3003 154.675 32.3003C154.288 32.3003 153.902 32.3371 153.552 32.3923C153.184 32.4475 152.853 32.5396 152.54 32.6316C152.264 32.7236 152.024 32.8156 151.822 32.9077L151.932 34.6009C152.061 34.5273 152.208 34.4721 152.374 34.3985C152.632 34.288 152.945 34.1776 153.276 34.0856C153.626 33.9935 154.012 33.9383 154.454 33.9383C154.785 33.9383 155.08 33.9751 155.319 34.0488C155.558 34.1224 155.76 34.2512 155.908 34.3985C156.055 34.5641 156.165 34.7481 156.221 34.9874C156.276 35.2083 156.313 35.4659 156.313 35.7604V36.4598H155.282C154.491 36.4598 153.791 36.515 153.202 36.6439C152.613 36.7543 152.116 36.9383 151.73 37.1776C151.343 37.4169 151.049 37.7113 150.865 38.0794C150.681 38.4475 150.57 38.8708 150.57 39.3678C150.57 39.8279 150.644 40.2328 150.791 40.5825C150.938 40.9138 151.159 41.2083 151.435 41.4475C151.711 41.6868 152.043 41.8524 152.429 41.9813C152.816 42.0917 153.239 42.1653 153.699 42.1653C154.251 42.1653 154.767 42.0549 155.208 41.8524C155.668 41.6132 156.092 41.3187 156.441 40.9322ZM155.319 40.3616C155.006 40.5641 154.638 40.6561 154.251 40.6561C153.791 40.6561 153.423 40.5273 153.165 40.288C152.889 40.0488 152.761 39.6991 152.761 39.2942C152.761 39.0549 152.816 38.834 152.908 38.6316C153 38.4291 153.147 38.2635 153.349 38.1346C153.552 38.0058 153.81 37.8954 154.104 37.8402C154.399 37.785 154.767 37.7481 155.19 37.7481H156.313V39.4966L156.276 39.5334C155.945 39.9015 155.632 40.1776 155.319 40.3616Z" fill="#FBFBFB"/>
<path d="M166.969 32.3188L165.405 35.9262L164.448 38.1348L163.804 36.644L161.926 32.3188H159.607L162.644 39.3311L163.307 40.8955L161.558 45.1839H163.877L165.405 41.3004L166.564 38.6133L169.288 32.3188H166.969Z" fill="#FBFBFB"/>
<path d="M79.6743 20.8714C79.6743 20.9266 79.6743 20.9635 79.6559 21.0003C79.6559 21.0371 79.6375 21.0739 79.6191 21.1107C79.6007 21.1475 79.5823 21.1659 79.5639 21.1659C79.5455 21.1843 79.5087 21.1843 79.4903 21.1843H75.8645C75.7909 21.1843 75.7173 21.1659 75.6436 21.1107C75.57 21.0555 75.5332 20.9635 75.5332 20.8162V13.8408C75.5332 13.6935 75.57 13.6015 75.6436 13.5463C75.7173 13.4911 75.7909 13.4727 75.8645 13.4727H79.435C79.4719 13.4727 79.4903 13.4727 79.5087 13.4911C79.5271 13.5095 79.5455 13.5279 79.5639 13.5463C79.5823 13.5831 79.6007 13.6015 79.6007 13.6567C79.6007 13.6935 79.6191 13.7487 79.6191 13.8039C79.6191 13.8592 79.6191 13.896 79.6007 13.9328C79.6007 13.9696 79.5823 14.0064 79.5639 14.0248C79.5455 14.0432 79.5271 14.0616 79.5087 14.08C79.4903 14.0984 79.4535 14.0984 79.435 14.0984H76.2694V16.8224H79.0117C79.0485 16.8224 79.0669 16.8224 79.1038 16.8408C79.1222 16.8592 79.1406 16.8776 79.159 16.896C79.1774 16.9144 79.1958 16.9512 79.1958 17.0064C79.1958 17.0432 79.2142 17.0984 79.2142 17.1536C79.2142 17.2089 79.2142 17.2457 79.1958 17.2825C79.1958 17.3193 79.1774 17.3561 79.159 17.3745C79.1406 17.3929 79.1222 17.4113 79.1038 17.4297C79.0853 17.4481 79.0485 17.4481 79.0117 17.4481H76.2694V20.5217H79.4903C79.5271 20.5217 79.5455 20.5217 79.5639 20.5401C79.5823 20.5585 79.6007 20.577 79.6191 20.5954C79.6375 20.6138 79.6559 20.6506 79.6559 20.7058C79.6743 20.761 79.6743 20.8162 79.6743 20.8714Z" fill="#FBFBFB"/>
<path d="M86.1902 13.8041C86.1902 13.8593 86.1902 13.8961 86.1718 13.9329C86.1718 13.9697 86.1534 14.0065 86.135 14.025C86.1166 14.0434 86.0982 14.0618 86.0798 14.0802C86.0614 14.0986 86.0245 14.0986 86.0061 14.0986H83.7055V21.0556C83.7055 21.074 83.7055 21.0924 83.6871 21.1292C83.6687 21.1477 83.6503 21.1661 83.6319 21.1845C83.5951 21.2029 83.5583 21.2029 83.5215 21.2213C83.4663 21.2213 83.4111 21.2397 83.3558 21.2397C83.2822 21.2397 83.227 21.2397 83.1902 21.2213C83.135 21.2213 83.0982 21.2029 83.0798 21.1845C83.043 21.1661 83.0246 21.1477 83.0246 21.1292C83.0061 21.1108 83.0061 21.0924 83.0061 21.0556V14.117H80.7055C80.6687 14.117 80.6503 14.117 80.6319 14.0986C80.6135 14.0802 80.5951 14.0618 80.5767 14.0434C80.5583 14.025 80.5399 13.9881 80.5399 13.9513C80.5399 13.9145 80.5215 13.8593 80.5215 13.8225C80.5215 13.7673 80.5215 13.7121 80.5399 13.6753C80.5399 13.6385 80.5583 13.6016 80.5767 13.5648C80.5951 13.528 80.6135 13.5096 80.6319 13.5096C80.6503 13.4912 80.6871 13.4912 80.7055 13.4912H86.043C86.0798 13.4912 86.0982 13.4912 86.1166 13.5096C86.135 13.528 86.1534 13.5464 86.1718 13.5648C86.1902 13.6016 86.2086 13.62 86.2086 13.6753C86.1902 13.6937 86.1902 13.7489 86.1902 13.8041Z" fill="#FBFBFB"/>
<path d="M90.919 21.0738C90.919 21.0922 90.919 21.1106 90.9006 21.1474C90.8822 21.1842 90.8637 21.1842 90.8453 21.2026C90.8085 21.221 90.7717 21.221 90.7349 21.2394C90.6981 21.2394 90.6245 21.2578 90.5509 21.2578C90.4772 21.2578 90.422 21.2578 90.3852 21.2394C90.33 21.2394 90.2932 21.221 90.2748 21.2026C90.238 21.1842 90.2196 21.1658 90.2196 21.1474C90.2196 21.129 90.2012 21.1106 90.2012 21.0738V13.583C90.2012 13.5646 90.2012 13.5462 90.2196 13.5094C90.238 13.491 90.2564 13.4725 90.2932 13.4541C90.33 13.4357 90.3668 13.4357 90.4036 13.4173C90.4404 13.4173 90.4957 13.3989 90.5693 13.3989C90.6429 13.3989 90.6981 13.3989 90.7533 13.4173C90.7901 13.4173 90.8269 13.4357 90.8637 13.4541C90.9006 13.4725 90.919 13.491 90.919 13.5094C90.919 13.5278 90.9374 13.5462 90.9374 13.583V21.0738H90.919Z" fill="#FBFBFB"/>
<path d="M97.8582 13.8041C97.8582 13.8593 97.8582 13.8961 97.8398 13.9329C97.8398 13.9697 97.8214 14.0065 97.803 14.025C97.7846 14.0434 97.7661 14.0618 97.7477 14.0802C97.7293 14.0986 97.6925 14.0986 97.6741 14.0986H95.3735V21.0556C95.3735 21.074 95.3735 21.0924 95.3551 21.1292C95.3367 21.1661 95.3183 21.1661 95.2999 21.1845C95.2631 21.2029 95.2263 21.2029 95.1895 21.2213C95.1342 21.2213 95.079 21.2397 95.0238 21.2397C94.9502 21.2397 94.895 21.2397 94.8582 21.2213C94.803 21.2213 94.7661 21.2029 94.7477 21.1845C94.7109 21.1661 94.6925 21.1477 94.6925 21.1292C94.6741 21.1108 94.6741 21.0924 94.6741 21.0556V14.117H92.3735C92.3367 14.117 92.3183 14.117 92.2999 14.0986C92.2815 14.0802 92.2631 14.0618 92.2447 14.0434C92.2263 14.025 92.2079 13.9881 92.2079 13.9513C92.2079 13.9145 92.1895 13.8593 92.1895 13.8225C92.1895 13.7673 92.1895 13.7121 92.2079 13.6753C92.2079 13.6385 92.2263 13.6016 92.2447 13.5648C92.2631 13.528 92.2815 13.5096 92.2999 13.5096C92.3183 13.4912 92.3551 13.4912 92.3735 13.4912H97.7109C97.7477 13.4912 97.7661 13.4912 97.7845 13.5096C97.8029 13.528 97.8214 13.5464 97.8398 13.5648C97.8582 13.6016 97.8766 13.62 97.8766 13.6753C97.8582 13.6937 97.8582 13.7489 97.8582 13.8041Z" fill="#FBFBFB"/>
<path d="M108.072 17.2456C108.072 17.8714 107.999 18.4235 107.852 18.9204C107.704 19.4174 107.502 19.8407 107.207 20.1904C106.931 20.5401 106.563 20.8161 106.14 21.0002C105.717 21.1842 105.201 21.2947 104.631 21.2947C104.06 21.2947 103.563 21.2026 103.158 21.0186C102.753 20.8345 102.404 20.5769 102.146 20.2456C101.888 19.9143 101.686 19.491 101.557 19.0125C101.428 18.5339 101.373 17.9818 101.373 17.3744C101.373 16.7671 101.447 16.2149 101.576 15.718C101.723 15.2211 101.925 14.7977 102.22 14.448C102.496 14.0984 102.864 13.8223 103.287 13.6382C103.71 13.4542 104.226 13.3438 104.796 13.3438C105.367 13.3438 105.845 13.4358 106.25 13.6198C106.655 13.8039 107.005 14.0615 107.263 14.3928C107.539 14.7241 107.723 15.129 107.852 15.6076C107.999 16.1045 108.072 16.6382 108.072 17.2456ZM107.299 17.3008C107.299 16.8407 107.263 16.4174 107.171 16.0125C107.079 15.6076 106.95 15.2579 106.747 14.9634C106.545 14.6689 106.287 14.4296 105.956 14.264C105.625 14.0984 105.22 14.0063 104.741 14.0063C104.263 14.0063 103.858 14.0984 103.526 14.264C103.195 14.448 102.937 14.6873 102.735 14.9818C102.533 15.2763 102.385 15.626 102.293 16.0309C102.201 16.4358 102.164 16.8407 102.164 17.2824C102.164 17.7609 102.201 18.1842 102.293 18.5891C102.367 18.9941 102.514 19.3437 102.717 19.6382C102.919 19.9327 103.177 20.172 103.508 20.3376C103.839 20.5033 104.244 20.5953 104.741 20.5953C105.22 20.5953 105.643 20.5033 105.974 20.3192C106.306 20.1352 106.563 19.8959 106.766 19.583C106.968 19.2701 107.115 18.9204 107.207 18.5339C107.244 18.1658 107.299 17.7425 107.299 17.3008Z" fill="#FBFBFB"/>
<path d="M115.416 20.8343C115.416 20.9079 115.398 20.9632 115.379 21.0184C115.361 21.0736 115.324 21.1104 115.287 21.1288C115.25 21.1656 115.214 21.184 115.177 21.184C115.14 21.2024 115.103 21.2024 115.066 21.2024H114.919C114.845 21.2024 114.772 21.184 114.698 21.1656C114.625 21.1472 114.569 21.1104 114.514 21.0552C114.459 21 114.385 20.9448 114.33 20.8527C114.275 20.7607 114.201 20.6687 114.128 20.5214L111.404 15.6994C111.275 15.4601 111.128 15.2208 110.999 14.9816C110.87 14.7239 110.723 14.4846 110.612 14.2638C110.612 14.5582 110.612 14.8527 110.612 15.1656C110.612 15.4785 110.612 15.773 110.612 16.0674V21.0736C110.612 21.092 110.612 21.1104 110.594 21.1472C110.576 21.1656 110.557 21.184 110.539 21.2024C110.502 21.2208 110.465 21.2208 110.428 21.2392C110.391 21.2392 110.318 21.2576 110.244 21.2576C110.171 21.2576 110.115 21.2576 110.079 21.2392C110.023 21.2392 109.987 21.2208 109.968 21.2024C109.931 21.184 109.913 21.1656 109.913 21.1472C109.895 21.1288 109.895 21.1104 109.895 21.0736V13.8405C109.895 13.6932 109.931 13.6012 110.005 13.546C110.079 13.4908 110.152 13.4724 110.226 13.4724H110.52C110.612 13.4724 110.704 13.4724 110.76 13.4908C110.815 13.5092 110.888 13.5276 110.925 13.5644C110.98 13.6012 111.036 13.6564 111.072 13.73C111.128 13.8036 111.183 13.8957 111.238 13.9877L113.318 17.6871C113.447 17.9263 113.576 18.1472 113.686 18.3497C113.796 18.5705 113.925 18.773 114.036 18.9754C114.146 19.1779 114.257 19.3803 114.367 19.5828C114.477 19.7852 114.588 19.9877 114.698 20.1901C114.698 19.8589 114.698 19.5092 114.698 19.1411C114.698 18.773 114.698 18.4233 114.698 18.092V13.6012C114.698 13.5828 114.698 13.5644 114.717 13.5276C114.735 13.5092 114.753 13.4908 114.772 13.4724C114.809 13.454 114.845 13.454 114.882 13.4355C114.919 13.4355 114.993 13.4355 115.066 13.4355C115.122 13.4355 115.177 13.4355 115.232 13.4355C115.287 13.4355 115.324 13.454 115.342 13.4724C115.379 13.4908 115.398 13.5092 115.398 13.5276C115.416 13.546 115.416 13.5644 115.416 13.6012V20.8343Z" fill="#FBFBFB"/>
<path d="M66.7363 17.3192C66.7363 19.399 68.4296 21.0922 70.5093 21.0922C72.5891 21.0922 74.2823 19.399 74.2823 17.3192C74.2823 17.264 74.2823 17.2088 74.2823 17.1536H70.675V17.8898H73.4909L73.4357 18.1107C73.0676 19.4358 71.8713 20.3561 70.4909 20.3561C68.8161 20.3561 67.4357 18.9941 67.4357 17.3008C67.4357 15.626 68.7977 14.2456 70.4909 14.2456C71.1903 14.2456 71.8713 14.4849 72.4234 14.945L72.9388 14.4297C72.2578 13.8407 71.3928 13.5278 70.4909 13.5278C68.4296 13.5462 66.7363 15.2395 66.7363 17.3192Z" fill="#FBFBFB"/>
</g>
<defs>
<clipPath id="clip0_1_11713">
<rect width="199.325" height="60" fill="white"/>
</clipPath>
</defs>
</svg>
